{"title":"Event Horizon 720P.avi","uid":5898473,"size":1309500238,"categoryP":"video","categoryS":"hd___movies","magnet":"?xt=urn:btih:275541051e89f26b26d24055eb741ff82a231944&amp;dn=Event+Horizon+720P.avi&amp;tr=udp%3A%2F%2Ftracker.openbittorrent.com%3A80&amp;tr=udp%3A%2F%2Fopen.demonii.com%3A1337&amp;tr=udp%3A%2F%2Ftracker.coppersurfer.tk%3A6969&amp;tr=udp%3A%2F%2Fexodus.desync.com%3A6969","seeders":0,"leechers":0,"uploader":"No1VIPER","files":-1,"time":1287588589,"description":"This is my first upload, so don\\'t be to harsh with the comments. I thought I would upload this as there aren\\'t any 720P versions around this size. This won\\'t be for everyone, but hopefully some people will appreciate it.\n\n\n\n\nDetailed Analysis of:   Event Horizon.avi\n\nGeneral  Complete name : D:\\\\Videos\\\\Films\\\\Event Horizon.avi \nFormat : AVI \nFormat/Info : Audio Video Interleave \nFormat profile : OpenDML \nFile size : 1.22 GiB \nDuration : 1h 35mn \nOverall bit rate : 1 820 Kbps \nDirector : created.with.SUPER(C).v2010.bld.38 \nWriting application : SUPER(C) - by eRightSoft \n\nVideo  ID : 0 \nFormat : MPEG-4 Visual \nFormat profile : Advanced Simple@L5 \nFormat settings, BVOP : Yes \nFormat settings, QPel : No \nFormat settings, GMC : No warppoints \nFormat settings, Matrix : Default (MPEG) \nCodec ID : XVID \nCodec ID/Hint : XviD \nDuration : 1h 35mn \nBit rate : 1 484 Kbps \nWidth : 720 pixels \nHeight : 306 pixels \nDisplay aspect ratio : 2.35:1 \nFrame rate : 23.976 fps \nResolution : 8 bits \nColorimetry : 4:2:0 \nScan type : Progressive \nBits/(Pixel*Frame) : 0.281 \nStream size : 1 018 MiB (82%) \nWriting library : XviD 1.1.2 (UTC 2006-11-01) \n\nAudio  ID : 1 \nFormat : MPEG Audio \nFormat version : Version 1 \nFormat profile : Layer 3 \nCodec ID : 55 \nCodec ID/Hint : MP3 \nDuration : 1h 35mn \nBit rate mode : Constant \nBit rate : 320 Kbps \nChannel(s) : 2 channels \nSampling rate : 48.0 KHz \nVideo delay : 42ms \nStream size : 220 MiB (18%) \nAlignment : Aligned on interleaves \nInterleave, duration : 24 ms (0.58 video frame) \nInterleave, preload duration : 504 ms \nWriting library : LAME3.97 \n","torrent":{"xt":"urn:btih:275541051e89f26b26d24055eb741ff82a231944","amp;dn":"Event+Horizon+720P.avi","amp;tr":["udp%3A%2F%2Ftracker.openbittorrent.com%3A80","udp%3A%2F%2Fopen.demonii.com%3A1337","udp%3A%2F%2Ftracker.coppersurfer.tk%3A6969","udp%3A%2F%2Fexodus.desync.com%3A6969"],"infoHash":"275541051e89f26b26d24055eb741ff82a231944","infoHashBuffer":{"type":"Buffer","data":[39,85,65,5,30,137,242,107,38,210,64,85,235,116,31,248,42,35,25,68]},"announce":[],"urlList":[]}}